# ProBuilder 4.4.0
# https://unity3d.com/unity/features/worldbuilding/probuilder
# 19/06/2022 22:10:26

mtllib ./Test_Level_1.mtl
o Test Level 1

g Cube (4)
v 8 1 -26
v 6 1 -26
v 8 0.8232241 -25.82322
v 6 0.8232241 -25.82322
v 6 3.82844 -23.17159
v 6 3.651664 -22.99481
v 8 3.82844 -23.17159
v 8 3.651664 -22.99481

vt 0 0
vt -2 0
vt 0 0.25
vt -2 0.25
vt -4 0
vt -4 0.25
vt 2 0
vt 2 0.25
vt 4 0
vt 4 0.25
vt 0 -4
vt 2 -4
vt -2 -4

vn 0 -0.7071099 -0.7071036
vn -1 0 0
vn 0 0.7071099 0.7071036
vn 1 0 0
vn 0 -0.7071036 0.7071099
vn 0 0.7071036 -0.7071099

usemtl ProBuilder_Default_URP
f 3/3/1 4/4/1 2/2/1 1/1/1
f 4/3/2 6/6/2 5/5/2 2/1/2
f 6/8/3 8/3/3 7/1/3 5/7/3
f 8/10/4 3/3/4 1/1/4 7/9/4
f 8/11/5 6/12/5 4/7/5 3/1/5
f 1/1/6 2/2/6 5/13/6 7/11/6

g Cube (1)
v 12 1 -29
v 10 1 -29
v 12 1.176777 -28.82322
v 10 1.176777 -28.82322
v 10 3.828423 -31.82843
v 10 4.0052 -31.65166
v 12 3.828423 -31.82843
v 12 4.0052 -31.65166

vt 0 0
vt -2 0
vt 0 0.25
vt -2 0.25
vt -4 0
vt -4 0.25
vt 2 0
vt 2 0.25
vt 4 0
vt 4 0.25
vt 0 -4
vt 2 -4
vt -2 -4

vn 0 -0.7071057 0.7071078
vn -1 0 0
vn 0 0.7071057 -0.7071078
vn 1 0 0
vn 0 0.7071078 0.7071057
vn 0 -0.7071078 -0.7071057

usemtl ProBuilder_Default_URP
f 11/16/7 12/17/7 10/15/7 9/14/7
f 12/16/8 14/19/8 13/18/8 10/14/8
f 14/21/9 16/16/9 15/14/9 13/20/9
f 16/23/10 11/16/10 9/14/10 15/22/10
f 16/24/11 14/25/11 12/20/11 11/14/11
f 9/14/12 10/15/12 13/26/12 15/24/12

g Cube (3)
v 16 1 -26
v 14 1 -26
v 16 0.8232241 -25.82322
v 14 0.8232241 -25.82322
v 14 3.82844 -23.17159
v 14 3.651664 -22.99481
v 16 3.82844 -23.17159
v 16 3.651664 -22.99481

vt 0 0
vt -2 0
vt 0 0.25
vt -2 0.25
vt -4 0
vt -4 0.25
vt 2 0
vt 2 0.25
vt 4 0
vt 4 0.25
vt 0 -4
vt 2 -4
vt -2 -4

vn 0 -0.7071099 -0.7071036
vn -1 0 0
vn 0 0.7071099 0.7071036
vn 1 0 0
vn 0 -0.7071036 0.7071099
vn 0 0.7071036 -0.7071099

usemtl ProBuilder_Default_URP
f 19/29/13 20/30/13 18/28/13 17/27/13
f 20/29/14 22/32/14 21/31/14 18/27/14
f 22/34/15 24/29/15 23/27/15 21/33/15
f 24/36/16 19/29/16 17/27/16 23/35/16
f 24/37/17 22/38/17 20/33/17 19/27/17
f 17/27/18 18/28/18 21/39/18 23/37/18

g Cube (9)
v 9 0.25 -11
v 0 0.25 -11
v 9 13.25 -11
v 6 13.25 -11
v 0 0.25 -15
v 6 13.25 -15
v 9 0.25 -15
v 9 13.25 -15

vt 3 0
vt -6 0
vt 3 13
vt 0 13
vt 0 -2.514349
vt -4 -2.514349
vt 0 11.80347
vt -4 11.80347
vt 6 0
vt -3 0
vt -3 13
vt 4 0
vt 0 0
vt 4 13
vt -3 -4
vt 0 -4
vt 3 -4
vt -6 -4

vn 0 0 1
vn -0.9079594 0.4190582 0
vn 0 0 -1
vn 1 0 0
vn 0 1 0
vn 0 -1 0

usemtl ProBuilder_Default_URP
f 27/42/19 28/43/19 26/41/19 25/40/19
f 28/46/20 30/47/20 29/45/20 26/44/20
f 30/43/21 32/50/21 31/49/21 29/48/21
f 32/53/22 27/43/22 25/52/22 31/51/22
f 32/54/23 30/55/23 28/52/23 27/49/23
f 25/40/24 26/41/24 29/57/24 31/56/24

g Cube (1)
v -4.86 0.25 -5.99
v -14.86 0.25 -5.99
v -14.86 7.25 -5.99
v -25.66371 0.25 -5.99
v -25.66371 0.25 -10.99
v -14.86 0.25 -10.99
v -4.86 0.25 -10.99
v -14.86 7.25 -10.99
v -19.86 0.25 -5.99
v -19.86 0.25 -10.99
v -19.86 7.25 -5.99
v -19.86 7.25 -10.99

vt 0 0
vt 10 0
vt 10 7
vt 12.20656 0
vt 0 -5
vt 12.20656 -5
vt -10 -5
vt -10 0
vt -15 0
vt -15 -5
vt -10 7
vt -15 7
vt 15 0
vt 15 7
vt 10 -5
vt 15 -5
vt -20.80371 0
vt -20.80371 -5
vt 20.80371 0
vt -5 -4.18515
vt 0 -4.18515
vt -5 -13.27817
vt 0 -13.27817

vn 0 0 0
vn 0 0 0.5
vn 0 0 1
vn 0 0 -1
vn 0 0 -0.5
vn 0.5734623 0.8192319 0
vn 0 -1 0
vn 0 1 0
vn -0.769821 0.6382598 0

usemtl ProBuilder_Default_URP
f 33/58/26 35/58/27 34/58/26 33/58/25
f 36/58/25 37/58/25 37/58/25 36/58/25
f 40/60/29 39/58/25 39/58/29 38/59/28
f 39/58/25 33/58/25 33/58/25 39/58/25
f 39/62/30 40/63/30 35/61/30 33/58/30
f 33/58/31 34/65/31 38/64/31 39/62/31
f 41/66/31 42/67/31 38/64/31 34/65/31
f 43/69/27 41/66/27 34/65/27 35/68/27
f 42/70/28 44/71/28 40/60/28 38/59/28
f 44/73/32 43/70/32 35/59/32 40/72/32
f 36/74/31 37/75/31 42/67/31 41/66/31
f 36/74/26 36/74/25 41/66/26 43/69/27
f 37/76/29 37/76/25 44/71/29 42/70/28
f 37/79/33 36/80/33 43/78/33 44/77/33

g Cube
v -29.5 0 5
v -30 0 5
v -30 0.125 5
v -29.5 0.125 5
v -30 0.8124409 5
v -29.5 0.8124409 5
v -30 0 4.5
v -30 0.125 4.5
v -30 0.8124409 4.5
v -30 0 -32.5
v -30 0 -33
v -30 0.125 -33
v -30 0.125 -32.5
v -30 0.8124409 -33
v -30 0.8124409 -32.5
v -15 0 -33
v -15 0.125 -33
v -29.5 0.125 -33
v -29.5 0 -33
v -15 0.8124409 -33
v -29.5 0.8124409 -33
v 46.27 0 -33
v 46.27 0.125 -33
v -0.5 0.125 -33
v -0.5 0 -33
v 46.27 0.8124409 -33
v -0.5 0.8124409 -33
v 46.27 0.8124409 -32.5
v 46.27 0.125 -32.5
v 46.27 0 -32.5
v 46.27 0 5
v 46.27 0.125 5
v 46.27 0.125 4.5
v 46.27 0 4.5
v 46.27 0.8124409 5
v 46.27 0.8124409 4.5
v 46.27 1.75 4.5
v 46.27 1.75 5
v 45.77 1.75 5
v 45.77 1.75 4.5
v -15 1.75 4.5
v -15 1.75 5
v -29.5 1.75 5
v -29.5 1.75 4.5
v -30 1.75 5
v -30 1.75 4.5
v -30 1.75 -33
v -29.5 1.75 -33
v -29.5 1.75 -32.5
v -30 1.75 -32.5
v -15 1.75 -33
v -15 1.75 -32.5
v 45.77 1.75 -33
v 45.77 1.75 -32.5
v 46.27 1.75 -33
v 46.27 1.75 -32.5
v -15 0 -32.5
v -0.5 0 -32.5
v -29.5 0 -32.5
v -29.5 0 4.5
v -15 0 5
v -15 0 4.5
v -0.5 0 5
v -0.5 0 4.5
v 45.77 0.25 -32.5
v -15 0.25 -32.5
v -29.5 0.25 -32.5
v -29.5 0.25 4.5
v -15 0.25 4.5
v -30 0 -13
v -30 0.125 -13
v -30 0.8124409 -13
v 46.27 0.8124409 -13
v 46.27 0.125 -13
v 46.27 0 -13
v 45.77 0.25 -13
v 45.77 0.25 4.5
v -15 0.25 -13
v 46.27 1.75 -13
v 45.77 1.75 -13
v -29.5 1.75 -13
v -30 1.75 -13
v -29.5 0.25 -13
v -29.5 0 -13
v -15 0 -13
v -0.5 0 -13
v -80.63359 0 -22.5
v -80.63359 0 -23
v -80.63359 0.125 -23
v -80.63359 0.125 -22.5
v -80.63359 0.8124409 -23
v -80.63359 0.8124409 -22.5
v 46.27 0.8124409 -22.5
v 46.27 0.8124409 -23
v 46.27 0.125 -23
v 46.25 0.25 -22.5
v 46.27 0 -23
v 46.25 0 -22.5
v -15 0.25 -23
v 45.77 0.25 -23
v 45.77 0.25 -22.5
v -15 0.25 -22.5
v 45.77 1.75 -23
v 46.27 1.75 -23
v 46.27 1.75 -22.5
v 45.77 1.75 -22.5
v -30 1.75 -23
v -29.5 1.75 -23
v -29.5 1.75 -22.5
v -30 1.75 -22.5
v -29.5 0.25 -23
v -29.5 0.25 -22.5
v -30 0 -23
v -30 0 -22.5
v -29.5 0 -22.5
v -29.5 0 -23
v -15 0 -22.5
v -15 0 -23
v -0.5 0 -22.5
v -0.5 0 -23
v -80.63359 1.75 -23
v -80.63359 1.75 -22.5
v -80.63359 0 -5
v -80.63359 0 -5.5
v -80.63359 0.125 -5.5
v -80.63359 0.125 -5
v -80.63359 0.8124409 -5.5
v -80.63359 0.8124409 -5
v -30 0.125 -13.5
v -30 0.125 -22.5
v -30 0.8124409 -22.5
v -30 0.8124409 -13.5
v 46.27 0.8124409 -13.5
v 46.25 0.25 -13.5
v 46.25 0 -13.5
v 45.77 0.25 -13.5
v -15 0.25 -13.5
v 46.27 1.75 -13.5
v 45.77 1.75 -13.5
v -29.5 1.75 -13.5
v -30 1.75 -13.5
v -29.5 0.25 -13.5
v -30 0 -13.5
v -29.5 0 -13.5
v -15 0 -13.5
v -0.5 0 -13.5
v -80.63359 1.75 -5.5
v -80.63359 1.75 -5
v -30 0.8124409 -23
v -30 0.125 -23
v -30 0 -29
v -30 0.125 -29
v -30 0.8124409 -29
v 46.27 0.125 -29
v 46.27 0 -29
v 46.27 0.8124409 -29
v -15 0.25 -29
v -29.5 0.25 -29
v -29.5 1.75 -29
v -30 1.75 -29
v 46.27 1.75 -29
v 45.77 1.75 -29
v 45.77 0.25 -29
v -15 0 -29
v -0.5 0 -29
v -29.5 0 -29

vt -29.5 0
vt -30 0
vt -30 0.125
vt -29.5 0.125
vt -30 0.8124409
vt -29.5 0.8124409
vt 8 0
vt 7.5 0
vt 7.5 0.125
vt 8 0.125
vt 7.5 0.8124409
vt 8 0.8124409
vt 15 0
vt 15 0.125
vt 29.5 0.125
vt 29.5 0
vt 15 0.8124409
vt 29.5 0.8124409
vt 30 0.8124409
vt 30 0.125
vt 30 0
vt -46.27 0
vt -46.27 0.125
vt 0.5 0.125
vt 0.5 0
vt -46.27 0.8124409
vt 0.5 0.8124409
vt 29.5 0.9299085
vt 30 0.9299085
vt 30 0.2424698
vt 29.5 0.2424698
vt 30 0.1174702
vt 29.5 0.1174702
vt -8.000001 0.1174703
vt -8.000001 0.2424698
vt -7.500001 0.2424698
vt -7.500001 0.1174703
vt -8.000001 0.9299085
vt -7.500001 0.9299085
vt -46.27 7.5
vt -46.27 8
vt -45.77 8
vt -45.77 7.5
vt 15 7.5
vt 15 8
vt 29.5 8
vt 29.5 7.5
vt 30 8
vt 30 7.5
vt 30 -30
vt 29.5 -30
vt 29.5 -29.5
vt 30 -29.5
vt 15 -30
vt 15 -29.5
vt -45.77 -30
vt -45.77 -29.5
vt -46.27 -30
vt -46.27 -29.5
vt -15 -30
vt -15 -29.5
vt -0.5 -29.5
vt -0.5 -30
vt 46.27 -29.5
vt 46.27 -30
vt -30 -30
vt -30 -29.5
vt -29.5 -29.5
vt -29.5 -30
vt -30 7.5
vt -30 8
vt -29.5 8
vt -29.5 7.5
vt -15 8
vt -15 7.5
vt -0.5 8
vt -0.5 7.5
vt 46.27 8
vt 46.27 7.5
vt -45.77 1.75
vt -46.27 1.75
vt -7.5 0.8124409
vt -8 0.8124409
vt -7.5 1.75
vt -8 1.75
vt 15 1.75
vt 30 1.75
vt 29.5 1.75
vt -29.5 1.75
vt -30 1.75
vt 45.77 0.25
vt -15 0.25
vt 45.77 1.75
vt -15 1.75
vt -29.5 0.25
vt 8 1.75
vt 7.5 1.75
vt 29.5 0.25
vt 15 0.25
vt -10 0
vt -10 0.125
vt -10 0.8124409
vt 9.999999 0.9299085
vt 9.999999 0.2424698
vt 9.999999 0.1174702
vt -45.77 -10
vt 15 -10
vt -46.27 -10
vt 29.5 -10
vt 30 -10
vt -30 -10
vt -29.5 -10
vt -15 -10
vt -0.5 -10
vt 46.27 -10
vt 9.999996 0.8124409
vt 9.999996 1.75
vt 7.500003 0.25
vt -9.999997 0.25
vt -9.999997 1.75
vt 10 0.25
vt -7.5 0.25
vt 10 1.75
vt -10 1.75
vt -19.5 0
vt -20 0
vt -20 0.125
vt -19.5 0.125
vt -20 0.8124409
vt -19.5 0.8124409
vt 19.5 0.9299085
vt 20 0.9299085
vt 20 0.2424698
vt 19.5 0.3674187
vt 20 0.1174702
vt 19.5 0.1174195
vt 15 -20
vt -45.77 -20
vt -45.77 -19.5
vt 15 -19.5
vt -46.27 -20
vt -46.27 -19.5
vt 30 -20
vt 29.5 -20
vt 29.5 -19.5
vt 30 -19.5
vt -30 -20
vt -30 -19.5
vt -29.5 -19.5
vt -29.5 -20
vt -15 -19.5
vt -15 -20
vt -0.5 -19.5
vt -0.5 -20
vt 46.25 -19.5
vt 46.27 -20
vt 19.5 1.75
vt 20 1.75
vt 20 0.8124409
vt 19.5 0.8124409
vt -19.5 0.25
vt -20 0.25
vt -20 1.75
vt -19.5 1.75
vt 19.5 1.75
vt 20 1.75
vt 20 0.25
vt 19.5 0.25
vt -20 1.75
vt -19.5 1.75
vt -2 0
vt -2.5 0
vt -2.5 0.125
vt -2 0.125
vt -2.5 0.8124409
vt -2 0.8124409
vt -10.5 0.125
vt -10.5 0.8124409
vt 10.5 0.9299085
vt 10.5 0.3674187
vt 10.5 0.1174195
vt -45.77 -10.5
vt 15 -10.5
vt -46.27 -10.5
vt 29.5 -10.5
vt 30 -10.5
vt -30 -10.5
vt -29.5 -10.5
vt -15 -10.5
vt -0.5 -10.5
vt 46.25 -10.5
vt 10.5 1.75
vt 10.5 0.8124409
vt -10.5 0.25
vt -10.5 1.75
vt 10.5 1.75
vt 10.5 0.25
vt -2.5 1.75
vt -2 1.75
vt -10.5 1.75
vt -80.63359 -19.5
vt -80.63359 -20
vt 80.63359 0.8124409
vt 80.63359 1.75
vt -80.63359 1.75
vt -80.63359 0.8124409
vt 80.63359 -20
vt 80.63359 -19.5
vt -80.63359 -2.5
vt 80.63359 0.125
vt -80.63359 0.125
vt 80.63359 0
vt -28.0718 0.125
vt -28.0718 0
vt -79.33348 0.125
vt -79.33348 0
vt 80.63359 -2.5
vt -80.63359 -2
vt 27.99377 0.125
vt 27.99377 0.8124409
vt 79.25546 0.125
vt 79.25546 0.8124409
vt -28.0718 0.8124409
vt -79.33349 0.8124409
vt 27.99377 1.75
vt 79.25546 1.75
vt -28.0718 1.75
vt -79.33348 1.75
vt 80.63359 -2
vt -46.25 -10.5
vt -46.25 -19.5
vt -46.25 0.25
vt -45.77 0.25
vt 46.25 0.25
vt 46.27 1.75
vt -26 0
vt -26 0.125
vt -26 0.8124409
vt 26 0.2424698
vt 26 0.1174703
vt 26 0.9299085
vt 15 -26
vt 29.5 -26
vt 30 -26
vt -46.27 -26
vt -45.77 -26
vt -15 -26
vt -0.5 -26
vt 46.27 -26
vt -30 -26
vt -29.5 -26
vt 26.00003 0.8124409
vt 20.00003 0.8124409
vt 26.00003 1.75
vt -20.00003 0.25
vt -26.00003 0.25
vt -26.00003 1.75
vt 26 0.25
vt 46.27 0.8124409
vt 46.27 0.125

vn 0 0 1
vn -1 0 0
vn 0 0 -1
vn 1 0 0
vn 0 1 0
vn 0 -1 0
vn 0.9993684 -0.03553765 0
vn 0.9992846 -0.01776882 0.01998448
vn 0.9992009 0 0.03996895
vn 0.9990888 -0.01774765 -0.02440092
vn 0.9981776 -0.0354953 -0.04880184
vn 0.9992009 0 -0.03996895
vn 0.156062 0 0.9877473
vn -0.156062 0 -0.9877473

usemtl ProBuilder_Default_URP
f 177/106/36 183/160/36 182/161/36
f 200/106/36 198/103/36 207/313/36
f 72/339/34 109/171/34 73/340/34
f 47/83/34 46/82/34 45/81/34
f 45/81/34 48/84/34 47/83/34
f 49/85/34 47/83/34 48/84/34
f 48/84/34 50/86/34 49/85/34
f 52/89/35 51/88/35 46/87/35
f 46/87/35 47/90/35 52/89/35
f 53/91/35 52/89/35 47/90/35
f 47/90/35 49/92/35 53/91/35
f 56/83/35 55/82/35 54/81/35
f 54/81/35 57/84/35 56/83/35
f 58/85/35 56/83/35 57/84/35
f 57/84/35 59/86/35 58/85/35
f 62/95/36 61/94/36 60/93/36
f 60/93/36 63/96/36 62/95/36
f 65/98/36 64/97/36 61/94/36
f 61/94/36 62/95/36 65/98/36
f 58/99/36 65/98/36 62/95/36
f 62/95/36 56/100/36 58/99/36
f 56/100/36 62/95/36 63/96/36
f 63/96/36 55/101/36 56/100/36
f 68/104/36 67/103/36 66/102/36
f 66/102/36 69/105/36 68/104/36
f 71/107/36 70/106/36 67/103/36
f 67/103/36 68/104/36 71/107/36
f 64/97/36 71/107/36 68/104/36
f 68/104/36 61/94/36 64/97/36
f 61/94/36 68/104/36 69/105/36
f 69/105/36 60/93/36 61/94/36
f 70/109/37 72/108/37 73/111/37
f 73/111/37 67/110/37 70/109/37
f 67/110/37 73/111/37 74/113/37
f 74/113/37 66/112/37 67/110/37
f 77/116/37 76/115/37 75/114/37
f 75/114/37 78/117/37 77/116/37
f 80/119/37 79/118/37 76/115/37
f 76/115/37 77/116/37 80/119/37
f 82/121/38 81/120/38 84/123/38
f 84/123/38 83/122/38 82/121/38
f 86/125/38 85/124/38 88/127/38
f 88/127/38 87/126/38 86/125/38
f 87/126/38 88/127/38 90/129/38
f 90/129/38 89/128/38 87/126/38
f 93/132/38 92/131/38 91/130/38
f 91/130/38 94/133/38 93/132/38
f 96/135/38 95/134/38 92/131/38
f 92/131/38 93/132/38 96/135/38
f 98/137/38 97/136/38 95/134/38
f 95/134/38 96/135/38 98/137/38
f 100/139/38 99/138/38 97/136/38
f 97/136/38 98/137/38 100/139/38
f 102/142/39 101/141/39 60/140/39
f 60/140/39 69/143/39 102/142/39
f 74/144/39 102/142/39 69/143/39
f 69/143/39 66/145/39 74/144/39
f 103/148/39 54/147/39 55/146/39
f 55/146/39 63/149/39 103/148/39
f 101/141/39 103/148/39 63/149/39
f 63/149/39 60/140/39 101/141/39
f 45/152/39 46/151/39 51/150/39
f 51/150/39 104/153/39 45/152/39
f 105/154/39 45/152/39 104/153/39
f 104/153/39 106/155/39 105/154/39
f 107/156/39 105/154/39 106/155/39
f 106/155/39 108/157/39 107/156/39
f 75/158/39 107/156/39 108/157/39
f 108/157/39 78/159/39 75/158/39
f 99/161/36 70/106/36 71/107/36
f 71/107/36 97/160/36 99/161/36
f 82/165/37 79/163/37 80/162/37
f 80/162/37 81/164/37 82/165/37
f 97/160/36 71/107/36 64/97/36
f 64/97/36 95/166/36 97/160/36
f 100/168/37 72/98/37 70/99/37
f 70/99/37 99/167/37 100/168/37
f 91/170/35 58/85/35 59/86/35
f 59/86/35 94/169/35 91/170/35
f 96/174/34 110/172/34 109/171/34
f 109/171/34 98/173/34 96/174/34
f 95/166/36 64/97/36 65/98/36
f 65/98/36 92/168/36 95/166/36
f 93/169/34 111/175/34 110/172/34
f 110/172/34 96/174/34 93/169/34
f 92/168/36 65/98/36 58/99/36
f 58/99/36 91/167/36 92/168/36
f 90/177/35 53/91/35 49/92/35
f 49/92/35 89/176/35 90/177/35
f 89/170/34 49/85/34 50/86/34
f 50/86/34 87/169/34 89/170/34
f 85/166/36 113/179/36 112/178/36
f 112/178/36 88/168/36 85/166/36
f 115/181/35 114/180/35 51/88/35
f 51/88/35 52/89/35 115/181/35
f 116/182/35 115/181/35 52/89/35
f 52/89/35 53/91/35 116/182/35
f 117/183/37 80/119/37 77/116/37
f 77/116/37 118/184/37 117/183/37
f 118/184/37 77/116/37 78/117/37
f 78/117/37 119/185/37 118/184/37
f 121/123/38 120/186/38 122/187/38
f 122/187/38 113/124/38 121/123/38
f 81/120/38 123/188/38 124/186/38
f 124/186/38 84/123/38 81/120/38
f 88/127/38 125/189/38 126/190/38
f 126/190/38 90/129/38 88/127/38
f 113/124/38 122/187/38 127/189/38
f 127/189/38 112/127/38 113/124/38
f 104/153/39 51/150/39 114/191/39
f 114/191/39 128/192/39 104/153/39
f 106/155/39 104/153/39 128/192/39
f 128/192/39 129/193/39 106/155/39
f 108/157/39 106/155/39 129/193/39
f 129/193/39 130/194/39 108/157/39
f 78/159/39 108/157/39 130/194/39
f 130/194/39 119/195/39 78/159/39
f 123/197/37 81/164/37 80/162/37
f 80/162/37 117/196/37 123/197/37
f 124/200/35 120/199/35 121/198/35
f 121/198/35 84/177/35 124/200/35
f 125/203/37 88/164/37 112/202/37
f 112/202/37 127/201/37 125/203/37
f 126/204/35 116/182/35 53/91/35
f 53/91/35 90/177/35 126/204/35
f 133/207/35 132/206/35 131/205/35
f 131/205/35 134/208/35 133/207/35
f 135/209/35 133/207/35 134/208/35
f 134/208/35 136/210/35 135/209/35
f 138/212/41 137/211/40 140/214/41
f 140/214/41 139/213/42 138/212/41
f 139/213/42 140/214/42 142/216/42
f 142/216/42 141/215/42 139/213/42
f 145/219/38 144/218/38 143/217/38
f 143/217/38 146/220/38 145/219/38
f 149/222/38 148/221/38 147/218/38
f 147/218/38 150/219/38 149/222/38
f 153/225/38 152/224/38 151/223/38
f 151/223/38 154/226/38 153/225/38
f 146/220/38 143/217/38 155/224/38
f 155/224/38 156/225/38 146/220/38
f 159/229/39 158/228/39 157/227/39
f 157/227/39 160/230/39 159/229/39
f 161/231/39 159/229/39 160/230/39
f 160/230/39 162/232/39 161/231/39
f 163/233/39 161/231/39 162/232/39
f 162/232/39 164/234/39 163/233/39
f 142/235/39 163/233/39 164/234/39
f 164/234/39 141/236/39 142/235/39
f 148/238/37 149/237/37 137/240/37
f 137/240/37 138/239/37 148/238/37
f 147/243/35 144/242/35 145/241/35
f 145/241/35 150/244/35 147/243/35
f 152/246/37 153/245/37 156/248/37
f 156/248/37 155/247/37 152/246/37
f 165/249/35 135/209/35 136/210/35
f 136/210/35 166/250/35 165/249/35
f 169/253/35 168/252/35 167/251/35
f 167/251/35 170/254/35 169/253/35
f 134/208/35 131/205/35 168/252/35
f 168/252/35 169/253/35 134/208/35
f 171/255/35 169/253/35 170/254/35
f 170/254/35 172/256/35 171/255/35
f 175/210/35 174/208/35 173/257/35
f 173/257/35 176/258/35 175/210/35
f 177/259/43 117/183/37 118/184/43
f 118/184/43 178/260/44 177/259/43
f 178/260/45 118/184/45 119/185/45
f 119/185/45 179/261/45 178/260/45
f 140/214/37 178/260/37 179/261/37
f 179/261/37 142/216/37 140/214/37
f 180/262/38 145/219/38 146/220/38
f 146/220/38 181/263/38 180/262/38
f 120/186/38 180/262/38 181/263/38
f 181/263/38 122/187/38 120/186/38
f 123/188/38 182/264/38 183/262/38
f 183/262/38 124/186/38 123/188/38
f 184/265/38 153/225/38 154/226/38
f 154/226/38 185/266/38 184/265/38
f 125/189/38 184/265/38 185/266/38
f 185/266/38 126/190/38 125/189/38
f 181/263/38 146/220/38 156/225/38
f 156/225/38 186/265/38 181/263/38
f 122/187/38 181/263/38 186/265/38
f 186/265/38 127/189/38 122/187/38
f 188/268/39 187/267/39 158/228/39
f 158/228/39 159/229/39 188/268/39
f 128/192/39 114/191/39 187/267/39
f 187/267/39 188/268/39 128/192/39
f 189/269/39 188/268/39 159/229/39
f 159/229/39 161/231/39 189/269/39
f 129/193/39 128/192/39 188/268/39
f 188/268/39 189/269/39 129/193/39
f 190/270/39 189/269/39 161/231/39
f 161/231/39 163/233/39 190/270/39
f 130/194/39 129/193/39 189/269/39
f 189/269/39 190/270/39 130/194/39
f 179/271/39 190/270/39 163/233/39
f 163/233/39 142/235/39 179/271/39
f 119/195/39 130/194/39 190/270/39
f 190/270/39 179/271/39 119/195/39
f 182/272/37 123/197/37 117/196/37
f 117/196/37 177/273/37 182/272/37
f 183/275/35 180/274/35 120/199/35
f 120/199/35 124/200/35 183/275/35
f 184/276/37 125/203/37 127/201/37
f 127/201/37 186/277/37 184/276/37
f 153/245/37 184/276/37 186/277/37
f 186/277/37 156/248/37 153/245/37
f 191/278/35 171/255/35 172/256/35
f 172/256/35 192/279/35 191/278/35
f 154/250/35 175/210/35 176/258/35
f 176/258/35 185/280/35 154/250/35
f 132/282/39 157/227/39 158/228/39
f 158/228/39 131/281/39 132/282/39
f 165/284/36 151/167/36 193/99/36
f 193/99/36 135/283/36 165/284/36
f 136/286/34 175/85/34 154/170/34
f 154/170/34 166/285/34 136/286/34
f 166/288/38 154/226/38 151/223/38
f 151/223/38 165/287/38 166/288/38
f 131/281/39 158/228/39 187/267/39
f 187/267/39 168/289/39 131/281/39
f 135/283/36 193/99/36 194/100/36
f 194/100/36 133/290/36 135/283/36
f 134/291/34 174/83/34 175/85/34
f 175/85/34 136/286/34 134/291/34
f 133/290/36 194/100/36 157/101/36
f 157/101/36 132/292/36 133/290/36
f 167/296/46 114/294/46 115/293/46
f 115/293/46 170/295/46 167/296/46
f 169/297/38 173/266/38 174/226/38
f 174/226/38 134/288/38 169/297/38
f 168/289/39 187/267/39 114/191/39
f 114/191/39 167/298/39 168/289/39
f 171/302/47 176/300/47 173/299/47
f 173/299/47 169/301/47 171/302/47
f 170/295/46 115/293/46 116/303/46
f 116/303/46 172/304/46 170/295/46
f 191/306/47 185/305/47 176/300/47
f 176/300/47 171/302/47 191/306/47
f 172/304/46 116/303/46 126/307/46
f 126/307/46 192/308/46 172/304/46
f 192/309/38 126/190/38 185/266/38
f 185/266/38 191/297/38 192/309/38
f 180/262/38 178/310/38 140/311/38
f 140/311/38 145/219/38 180/262/38
f 183/160/36 177/106/36 178/312/36
f 178/312/36 180/313/36 183/160/36
f 150/173/34 145/171/34 140/314/34
f 140/314/34 149/315/34 150/173/34
f 196/317/35 195/316/35 157/206/35
f 157/206/35 194/207/35 196/317/35
f 57/84/35 54/81/35 195/316/35
f 195/316/35 196/317/35 57/84/35
f 197/318/35 196/317/35 194/207/35
f 194/207/35 193/209/35 197/318/35
f 59/86/35 57/84/35 196/317/35
f 196/317/35 197/318/35 59/86/35
f 198/319/37 139/213/37 141/215/37
f 141/215/37 199/320/37 198/319/37
f 73/111/37 198/319/37 199/320/37
f 199/320/37 74/113/37 73/111/37
f 200/321/37 138/212/37 139/213/37
f 139/213/37 198/319/37 200/321/37
f 201/322/38 110/135/38 111/132/38
f 111/132/38 202/323/38 201/322/38
f 143/217/38 201/322/38 202/323/38
f 202/323/38 155/224/38 143/217/38
f 203/323/38 93/132/38 94/133/38
f 94/133/38 204/324/38 203/323/38
f 152/224/38 203/323/38 204/324/38
f 204/324/38 151/223/38 152/224/38
f 148/221/38 205/325/38 206/326/38
f 206/326/38 147/218/38 148/221/38
f 207/326/38 109/137/38 110/135/38
f 110/135/38 201/322/38 207/326/38
f 144/218/38 207/326/38 201/322/38
f 201/322/38 143/217/38 144/218/38
f 209/328/39 208/327/39 101/141/39
f 101/141/39 102/142/39 209/328/39
f 164/234/39 162/232/39 208/327/39
f 208/327/39 209/328/39 164/234/39
f 199/329/39 209/328/39 102/142/39
f 102/142/39 74/144/39 199/329/39
f 141/236/39 164/234/39 209/328/39
f 209/328/39 199/329/39 141/236/39
f 210/331/39 195/330/39 54/147/39
f 54/147/39 103/148/39 210/331/39
f 160/230/39 157/227/39 195/330/39
f 195/330/39 210/331/39 160/230/39
f 208/327/39 210/331/39 103/148/39
f 103/148/39 101/141/39 208/327/39
f 162/232/39 160/230/39 210/331/39
f 210/331/39 208/327/39 162/232/39
f 205/334/37 148/246/37 138/333/37
f 138/333/37 200/332/37 205/334/37
f 206/337/35 207/336/35 144/335/35
f 144/335/35 147/249/35 206/337/35
f 93/168/37 203/334/37 202/338/37
f 202/338/37 111/178/37 93/168/37
f 203/334/37 152/246/37 155/247/37
f 155/247/37 202/338/37 203/334/37
f 204/337/35 197/318/35 193/209/35
f 193/209/35 151/249/35 204/337/35
f 94/169/35 59/86/35 197/318/35
f 197/318/35 204/337/35 94/169/35
f 206/160/36 205/161/36 200/106/36
f 200/106/36 207/313/36 206/160/36
f 100/315/34 98/173/34 109/171/34
f 109/171/34 72/339/34 100/315/34

g Cube (10)
v -16.5 0.25 -15
v -25.5 0.25 -15
v -16.5 8.5 -15
v -19.5 8.5 -15
v -25.5 0.25 -19
v -19.5 8.5 -19
v -16.5 0.25 -19
v -16.5 8.5 -19

vt 3 0
vt -6 0
vt 3 8.25
vt 0 8.25
vt 0 -3.52903
vt -4 -3.52903
vt 0 6.672073
vt -4 6.672073
vt 6 0
vt -3 0
vt -3 8.25
vt 4 0
vt 0 0
vt 4 8.25
vt -3 -4
vt 0 -4
vt 3 -4
vt -6 -4

vn 0 0 1
vn -0.8087361 0.5881717 0
vn 0 0 -1
vn 1 0 0
vn 0 1 0
vn 0 -1 0

usemtl ProBuilder_Default_URP
f 213/343/48 214/344/48 212/342/48 211/341/48
f 214/347/49 216/348/49 215/346/49 212/345/49
f 216/344/50 218/351/50 217/350/50 215/349/50
f 218/354/51 213/344/51 211/353/51 217/352/51
f 218/355/52 216/356/52 214/353/52 213/350/52
f 211/341/53 212/342/53 215/358/53 217/357/53

g Cube
v 5 1 -29
v 3 1 -29
v 5 1.176777 -28.82322
v 3 1.176777 -28.82322
v 3 3.828423 -31.82843
v 3 4.0052 -31.65166
v 5 3.828423 -31.82843
v 5 4.0052 -31.65166

vt 0 0
vt -2 0
vt 0 0.25
vt -2 0.25
vt -4 0
vt -4 0.25
vt 2 0
vt 2 0.25
vt 4 0
vt 4 0.25
vt 0 -4
vt 2 -4
vt -2 -4

vn 0 -0.7071057 0.7071078
vn -1 0 0
vn 0 0.7071057 -0.7071078
vn 1 0 0
vn 0 0.7071078 0.7071057
vn 0 -0.7071078 -0.7071057

usemtl ProBuilder_Default_URP
f 221/361/54 222/362/54 220/360/54 219/359/54
f 222/361/55 224/364/55 223/363/55 220/359/55
f 224/366/56 226/361/56 225/359/56 223/365/56
f 226/368/57 221/361/57 219/359/57 225/367/57
f 226/369/58 224/370/58 222/365/58 221/359/58
f 219/359/59 220/360/59 223/371/59 225/369/59

g Cube (2)
v 20 1 -29
v 18 1 -29
v 20 1.176777 -28.82322
v 18 1.176777 -28.82322
v 18 3.828423 -31.82843
v 18 4.0052 -31.65166
v 20 3.828423 -31.82843
v 20 4.0052 -31.65166

vt 0 0
vt -2 0
vt 0 0.25
vt -2 0.25
vt -4 0
vt -4 0.25
vt 2 0
vt 2 0.25
vt 4 0
vt 4 0.25
vt 0 -4
vt 2 -4
vt -2 -4

vn 0 -0.7071057 0.7071078
vn -1 0 0
vn 0 0.7071057 -0.7071078
vn 1 0 0
vn 0 0.7071078 0.7071057
vn 0 -0.7071078 -0.7071057

usemtl ProBuilder_Default_URP
f 229/374/60 230/375/60 228/373/60 227/372/60
f 230/374/61 232/377/61 231/376/61 228/372/61
f 232/379/62 234/374/62 233/372/62 231/378/62
f 234/381/63 229/374/63 227/372/63 233/380/63
f 234/382/64 232/383/64 230/378/64 229/372/64
f 227/372/65 228/373/65 231/384/65 233/382/65

